<svg width="543" height="211" viewBox="0 0 543 211" fill="none" xmlns="http://www.w3.org/2000/svg">
<path d="M440.642 191.019C443.107 190.817 443.984 190.01 443.984 187.897C443.986 159.307 443.981 130.717 444 102.126C444 100.617 443.418 99.5359 441.727 99H375.164C374.918 99 374.285 99.0257 374.039 99.0374C371.812 99.1498 369.604 99.5757 367.608 100.432C362.659 102.557 360.003 106.503 360.003 111.887C360 140.478 359.997 169.068 360.005 197.658C360.008 205.16 366.025 210.346 374.715 210.349C396.546 210.351 418.374 210.351 440.204 210.344C440.786 210.344 441.384 210.316 441.941 210.192C443.175 209.913 444.014 208.9 443.965 207.856C443.916 206.799 443.004 205.846 441.781 205.61C441.292 205.516 440.789 205.479 440.291 205.42C435.897 204.912 432.753 201.882 432.807 198.201C432.862 194.386 436.138 191.384 440.642 191.019ZM429.88 205.451C429.442 205.481 429.095 205.525 428.752 205.525C410.744 205.528 392.734 205.535 374.726 205.525C369.78 205.523 366.239 202.956 365.719 199.057C365.195 195.102 368.39 191.573 372.97 191.065C373.509 191.007 374.055 190.993 374.599 190.993C392.65 190.988 410.701 190.991 428.752 190.991C429.079 190.991 429.404 190.991 429.923 190.991C426.32 195.891 426.341 200.616 429.88 205.451ZM378.668 186.156C374.188 186.153 369.648 185.842 365.676 188.683C365.636 188.072 365.592 187.733 365.592 187.391C365.59 162.209 365.587 137.026 365.592 111.841C365.592 106.872 369.101 103.825 374.818 103.823C395.558 103.816 416.296 103.821 437.036 103.823C437.445 103.823 437.853 103.856 438.327 103.877C438.327 131.292 438.327 158.633 438.327 186.16C437.683 186.16 437.147 186.16 436.614 186.16C417.297 186.16 397.982 186.167 378.668 186.156Z" fill="#1B1B1B"/>
<path d="M403.725 148.507C402.464 148.343 401.231 149.071 400.911 150.166C400.849 150.381 400.809 150.603 400.773 150.814L400.749 150.952C400.162 154.259 399.578 157.566 398.993 160.872L398.812 161.902C398.552 163.369 398.284 164.886 398.038 166.379C397.83 167.628 398.714 168.688 400.14 168.901C400.284 168.922 400.427 168.934 400.57 168.934C401.726 168.934 402.732 168.23 403.016 167.219C403.076 167.003 403.116 166.786 403.165 166.5L405.898 151.001L405.906 150.926C405.968 149.684 405.07 148.689 403.725 148.507Z" fill="#1B1B1B"/>
<path d="M417.745 157.172C416.671 156.056 415.589 154.947 414.504 153.838L413.33 152.635C413.235 152.539 413.108 152.412 412.962 152.298C412.132 151.647 410.974 151.523 410.013 151.984C408.999 152.469 408.487 153.451 408.774 154.371C408.896 154.762 409.156 155.169 409.548 155.583C410.362 156.445 411.177 157.278 412.037 158.16L412.578 158.715L411.847 159.466C411.02 160.315 410.208 161.148 409.402 161.984C408.874 162.529 408.62 163.173 408.687 163.793C408.747 164.354 409.066 164.869 409.591 165.246C410.051 165.576 410.598 165.751 411.168 165.751C411.956 165.751 412.705 165.431 413.276 164.848C414.675 163.428 416.136 161.928 417.737 160.264C418.728 159.232 418.73 158.193 417.745 157.172Z" fill="#1B1B1B"/>
<path d="M394.597 155.347C395.52 154.371 395.417 153.035 394.353 152.242C393.837 151.856 393.185 151.664 392.519 151.703C391.829 151.748 391.185 152.04 390.701 152.527C389.275 153.964 387.771 155.511 386.102 157.252C385.198 158.193 385.204 159.236 386.115 160.189C387.043 161.16 387.998 162.138 388.932 163.093L390.036 164.228C390.309 164.514 390.593 164.811 390.915 165.087C391.386 165.492 392.005 165.714 392.657 165.714C393.112 165.714 393.563 165.604 393.967 165.396C394.957 164.886 395.441 163.865 395.119 162.971C394.981 162.592 394.732 162.218 394.329 161.797C393.509 160.935 392.692 160.098 391.824 159.211L391.34 158.715L392 158.036C392.857 157.158 393.739 156.255 394.597 155.347Z" fill="#1B1B1B"/>
<path d="M377.429 119.236C376.087 119.236 374.997 120.179 374.997 121.339V128.213C374.997 129.373 376.087 130.316 377.429 130.316C378.771 130.316 379.862 129.373 379.862 128.213V121.339C379.862 120.179 378.771 119.236 377.429 119.236Z" fill="#1B1B1B"/>
<path d="M426.574 112.561C425.232 112.561 424.142 113.504 424.142 114.665V121.538C424.142 122.699 425.232 123.642 426.574 123.642C427.916 123.642 429.006 122.699 429.006 121.538V114.665C429.006 113.504 427.913 112.561 426.574 112.561Z" fill="#1B1B1B"/>
<path d="M397.85 112.561C396.508 112.561 395.418 113.504 395.418 114.665V128.212C395.418 129.373 396.508 130.316 397.85 130.316C399.192 130.316 400.282 129.373 400.282 128.212V114.665C400.285 113.504 399.192 112.561 397.85 112.561Z" fill="#1B1B1B"/>
<path d="M384.704 112.561H377.426C376.084 112.561 374.994 113.504 374.994 114.665C374.994 115.826 376.084 116.769 377.426 116.769H384.715C386.065 116.769 387.163 117.719 387.163 118.887V128.212C387.163 129.373 388.254 130.316 389.596 130.316C390.938 130.316 392.028 129.373 392.028 128.212V118.896C392.031 115.405 388.743 112.561 384.704 112.561Z" fill="#1B1B1B"/>
<path d="M406.151 119.236C404.809 119.236 403.719 120.179 403.719 121.339V128.213C403.719 129.373 404.809 130.316 406.151 130.316C407.493 130.316 408.583 129.373 408.583 128.213V121.339C408.583 120.179 407.493 119.236 406.151 119.236Z" fill="#1B1B1B"/>
<path d="M413.429 112.561H406.151C404.809 112.561 403.719 113.504 403.719 114.665C403.719 115.826 404.809 116.769 406.151 116.769H413.437C414.787 116.769 415.885 117.719 415.885 118.887V128.212C415.885 129.373 416.976 130.316 418.318 130.316C419.659 130.316 420.75 129.373 420.75 128.212V118.896C420.753 115.405 417.468 112.561 413.429 112.561Z" fill="#1B1B1B"/>
<path d="M43.7901 1.12012C51.9001 1.12012 58.4201 3.31013 63.3301 7.70013C68.2501 12.0901 70.7001 17.5601 70.7001 24.1101C70.7001 28.0401 69.7801 31.7101 67.9401 35.1101C66.1001 38.5101 63.6201 41.2401 60.5001 43.2801C65.1701 45.3301 68.6501 48.2201 70.9501 51.9501C73.2401 55.6801 74.3901 59.7201 74.3901 64.0601C74.3901 70.7001 71.9101 76.2101 66.9501 80.5901C61.9901 84.9701 55.2901 87.1701 46.8501 87.1701H3.83008V1.13013H43.7901V1.12012ZM21.6701 17.7101V36.8901H43.1801C46.1301 36.8901 48.5301 35.9501 50.3701 34.0601C52.2101 32.1701 53.1401 29.9201 53.1401 27.3001C53.1401 24.6801 52.2201 22.4301 50.3701 20.5401C48.5301 18.6601 46.1301 17.7201 43.1801 17.7201H21.6701V17.7101ZM21.6701 51.7601V70.5701H45.6401C48.5901 70.5701 50.9901 69.6701 52.8301 67.8701C54.6701 66.0701 55.6001 63.8601 55.6001 61.2301C55.6001 58.6101 54.6801 56.3701 52.8301 54.5301C50.9901 52.6901 48.5901 51.7601 45.6401 51.7601H21.6701V51.7601Z" fill="#1B1B1B"/>
<path d="M85.46 87.1601V1.12012H104.02V87.1601H85.46Z" fill="#1B1B1B"/>
<path d="M158.721 1.12012C166.831 1.12012 173.351 3.31013 178.261 7.70013C183.181 12.0901 185.631 17.5601 185.631 24.1101C185.631 28.0401 184.711 31.7101 182.871 35.1101C181.031 38.5101 178.551 41.2401 175.431 43.2801C180.101 45.3301 183.581 48.2201 185.881 51.9501C188.171 55.6801 189.321 59.7201 189.321 64.0601C189.321 70.7001 186.841 76.2101 181.881 80.5901C176.921 84.9701 170.221 87.1701 161.781 87.1701H118.761V1.13013H158.721V1.12012ZM136.601 17.7101V36.8901H158.111C161.061 36.8901 163.461 35.9501 165.301 34.0601C167.141 32.1701 168.071 29.9201 168.071 27.3001C168.071 24.6801 167.151 22.4301 165.301 20.5401C163.461 18.6601 161.061 17.7201 158.111 17.7201H136.601V17.7101ZM136.601 51.7601V70.5701H160.571C163.521 70.5701 165.921 69.6701 167.761 67.8701C169.601 66.0701 170.531 63.8601 170.531 61.2301C170.531 58.6101 169.611 56.3701 167.761 54.5301C165.921 52.6901 163.521 51.7601 160.571 51.7601H136.601V51.7601Z" fill="#1B1B1B"/>
<path d="M199.16 87.1601V1.12012H217.6V70.0801H259.52V87.1701H199.16V87.1601Z" fill="#1B1B1B"/>
<path d="M271.19 87.1601V1.12012H289.75V87.1601H271.19Z" fill="#1B1B1B"/>
<path d="M314.331 13.16C322.931 4.56 333.301 0.25 345.431 0.25C354.121 0.25 361.921 2.63 368.851 7.38C375.771 12.13 381.041 18.44 384.651 26.31L367.071 31.35C364.861 27.25 361.911 23.97 358.221 21.52C354.531 19.06 350.271 17.83 345.441 17.83C338.151 17.83 332.061 20.37 327.191 25.45C322.311 30.53 319.881 36.8 319.881 44.25C319.881 51.71 322.321 57.96 327.191 63C332.061 68.04 338.151 70.56 345.441 70.56C355.111 70.56 362.201 66.26 366.711 57.65L384.531 62.44C381.011 70.23 375.781 76.45 368.861 81.12C361.931 85.79 354.131 88.13 345.441 88.13C333.311 88.13 322.951 83.85 314.341 75.28C305.741 66.72 301.431 56.37 301.431 44.24C301.431 32.13 305.731 21.77 314.331 13.16Z" fill="#1B1B1B"/>
<path d="M416.11 1.12012H444.14L472.78 87.1601H453.73L448.2 70.0701H411.69L406.04 87.1601H386.87L416.11 1.12012ZM442.78 53.3601L430.12 13.9001L417.09 53.3601H442.78Z" fill="#1B1B1B"/>
<path d="M481.99 87.1601V1.12012H500.43V70.0801H542.35V87.1701H481.99V87.1601Z" fill="#1B1B1B"/>
<path d="M13.6803 124.23C22.2803 115.63 32.6503 111.32 44.7803 111.32C53.4703 111.32 61.2703 113.7 68.2003 118.45C75.1203 123.2 80.3903 129.51 84.0003 137.38L66.4203 142.42C64.2103 138.32 61.2603 135.04 57.5703 132.59C53.8803 130.13 49.6203 128.9 44.7903 128.9C37.5003 128.9 31.4103 131.44 26.5403 136.52C21.6603 141.6 19.2303 147.87 19.2303 155.32C19.2303 162.78 21.6703 169.03 26.5403 174.07C31.4103 179.11 37.5003 181.63 44.7903 181.63C54.4603 181.63 61.5503 177.33 66.0603 168.72L83.8803 173.51C80.3603 181.3 75.1303 187.52 68.2103 192.19C61.2803 196.86 53.4803 199.2 44.7903 199.2C32.6603 199.2 22.3003 194.92 13.6903 186.35C5.09029 177.79 0.780291 167.44 0.780291 155.31C0.770291 143.2 5.07028 132.83 13.6803 124.23Z" fill="#1B1B1B"/>
<path d="M90.1299 155.32C90.1299 143.19 94.4299 132.83 103.04 124.22C111.64 115.62 122.01 111.31 134.14 111.31C146.27 111.31 156.61 115.61 165.18 124.22C173.74 132.82 178.06 143.19 178.15 155.32C178.15 155.4 178.15 155.53 178.15 155.69C178.15 167.57 173.89 177.78 165.37 186.3C156.68 194.91 146.28 199.21 134.15 199.21C122.02 199.21 111.66 194.93 103.05 186.36C94.4299 177.8 90.1299 167.45 90.1299 155.32ZM115.94 174.25C120.77 179.41 126.84 181.99 134.13 181.99C141.42 181.99 147.51 179.41 152.38 174.25C157.26 169.09 159.69 162.78 159.69 155.32C159.69 147.87 157.25 141.53 152.38 136.33C147.5 131.13 141.42 128.52 134.13 128.52C126.92 128.52 120.86 131.12 115.94 136.33C111.02 141.53 108.57 147.87 108.57 155.32C108.57 162.78 111.03 169.09 115.94 174.25Z" fill="#1B1B1B"/>
<path d="M187.36 198.35V112.06H219.93C232.14 112.06 242.53 116.24 251.09 124.6C259.65 132.96 263.98 143.16 264.06 155.21C264.06 155.29 264.06 155.42 264.06 155.58C264.06 167.55 259.8 177.67 251.28 185.94C242.76 194.22 232.31 198.35 219.93 198.35H187.36V198.35ZM205.92 181.14H219.93C227.72 181.14 234.01 178.68 238.8 173.77C243.59 168.85 245.99 162.67 245.99 155.21C245.99 147.67 243.57 141.46 238.74 136.59C233.9 131.71 227.63 129.27 219.93 129.27H205.92V181.14V181.14Z" fill="#1B1B1B"/>
<path d="M336.831 112.18V129.26H292.951V146.84H331.911V163.56H292.951V181.14H336.831V198.23H274.511V112.19H336.831V112.18Z" fill="#1B1B1B"/>
</svg>
