<?xml version="1.0" encoding="utf-8"?>
<!-- Generator: Adobe Illustrator 25.2.0, SVG Export Plug-In . SVG Version: 6.00 Build 0)  -->
<svg version="1.1" id="Layer_1" xmlns="http://www.w3.org/2000/svg" xmlns:xlink="http://www.w3.org/1999/xlink" x="0px" y="0px"
	 viewBox="0 0 1080 653.12" style="enable-background:new 0 0 1080 653.12;" xml:space="preserve">
<g>
	<g>
		<g>
			<path d="M386.72,481.86c9.11-0.86,12.35-4.31,12.35-13.34c0.01-122.17-0.01-244.34,0.06-366.51c0-6.45-2.15-11.07-8.4-13.36
				H144.7c-0.91,0-3.25,0.11-4.16,0.16c-8.23,0.48-16.39,2.3-23.77,5.96c-18.29,9.08-28.11,25.94-28.11,48.95
				c-0.01,122.17-0.02,244.34,0.01,366.51c0.01,32.06,22.25,54.22,54.37,54.23c80.69,0.01,161.37,0.01,242.06-0.02
				c2.15,0,4.36-0.12,6.42-0.65c4.56-1.19,7.66-5.52,7.48-9.98c-0.18-4.52-3.55-8.59-8.07-9.6c-1.81-0.4-3.67-0.56-5.51-0.81
				c-16.24-2.17-27.86-15.12-27.66-30.85C357.96,496.25,370.07,483.42,386.72,481.86z M346.94,543.53c-1.62,0.13-2.9,0.32-4.17,0.32
				c-66.56,0.01-133.13,0.04-199.69,0c-18.28-0.01-31.37-10.98-33.29-27.64c-1.94-16.9,9.87-31.98,26.8-34.15
				c1.99-0.25,4.01-0.31,6.02-0.31c66.72-0.02,133.44-0.01,200.16-0.01c1.21,0,2.41,0,4.33,0
				C333.78,502.68,333.86,522.87,346.94,543.53z M157.65,461.08c-16.56-0.01-33.34-1.34-48.02,10.8c-0.15-2.61-0.31-4.06-0.31-5.52
				c-0.01-107.61-0.02-215.22,0-322.84c0-21.23,12.97-34.25,34.1-34.26c76.66-0.03,153.31-0.01,229.97,0c1.51,0,3.02,0.14,4.77,0.23
				c0,117.15,0,233.98,0,351.61c-2.38,0-4.36,0-6.33,0C300.43,461.1,229.04,461.13,157.65,461.08z"/>
		</g>
		<g>
			<g>
				<path d="M250.27,300.2c-4.66-0.7-9.22,2.41-10.4,7.09c-0.23,0.92-0.38,1.87-0.51,2.77l-0.09,0.59
					c-2.17,14.13-4.33,28.26-6.49,42.39l-0.67,4.4c-0.96,6.27-1.95,12.75-2.86,19.13c-0.77,5.34,2.5,9.87,7.77,10.78
					c0.53,0.09,1.06,0.14,1.59,0.14c4.27,0,7.99-3.01,9.04-7.33c0.22-0.92,0.37-1.85,0.55-3.07l10.1-66.23l0.03-0.32
					C258.56,305.23,255.24,300.98,250.27,300.2z"/>
			</g>
			<g>
				<path d="M302.09,337.23c-3.97-4.77-7.97-9.51-11.98-14.25l-4.34-5.14c-0.35-0.41-0.82-0.95-1.36-1.44
					c-3.07-2.78-7.35-3.31-10.9-1.34c-3.75,2.07-5.64,6.27-4.58,10.2c0.45,1.67,1.41,3.41,2.86,5.18c3.01,3.68,6.02,7.24,9.2,11.01
					l2,2.37l-2.7,3.21c-3.06,3.63-6.06,7.19-9.04,10.76c-1.95,2.33-2.89,5.08-2.64,7.73c0.22,2.4,1.4,4.6,3.34,6.21
					c1.7,1.41,3.72,2.16,5.83,2.16c2.91,0,5.68-1.37,7.79-3.86c5.17-6.07,10.57-12.48,16.49-19.59
					C305.72,346.03,305.73,341.59,302.09,337.23z"/>
			</g>
			<g>
				<path d="M216.53,329.43c3.41-4.17,3.03-9.88-0.9-13.27c-1.91-1.65-4.32-2.47-6.78-2.3c-2.55,0.19-4.93,1.44-6.72,3.52
					c-5.27,6.14-10.83,12.75-17,20.19c-3.34,4.02-3.32,8.48,0.05,12.55c3.43,4.15,6.96,8.33,10.41,12.41l4.08,4.85
					c1.01,1.22,2.06,2.49,3.25,3.67c1.74,1.73,4.03,2.68,6.44,2.68c1.68,0,3.35-0.47,4.84-1.36c3.66-2.18,5.45-6.54,4.26-10.36
					c-0.51-1.62-1.43-3.22-2.92-5.02c-3.03-3.68-6.05-7.26-9.26-11.05l-1.79-2.12l2.44-2.9
					C210.1,337.17,213.36,333.31,216.53,329.43z"/>
			</g>
		</g>
		<g>
			<g>
				<path d="M153.07,175.12c-4.96,0-8.99,4.03-8.99,8.99v29.37c0,4.96,4.03,8.99,8.99,8.99c4.96,0,8.99-4.03,8.99-8.99v-29.37
					C162.06,179.15,158.03,175.12,153.07,175.12z"/>
			</g>
			<g>
				<path d="M334.72,146.6c-4.96,0-8.99,4.03-8.99,8.99v29.37c0,4.96,4.03,8.99,8.99,8.99s8.99-4.03,8.99-8.99v-29.37
					C343.71,150.63,339.67,146.6,334.72,146.6z"/>
			</g>
			<g>
				<path d="M228.55,146.6c-4.96,0-8.99,4.03-8.99,8.99v57.89c0,4.96,4.03,8.99,8.99,8.99c4.96,0,8.99-4.03,8.99-8.99v-57.89
					C237.55,150.63,233.51,146.6,228.55,146.6z"/>
			</g>
			<g>
				<path d="M179.96,146.6h-26.9c-4.96,0-8.99,4.03-8.99,8.99c0,4.96,4.03,8.99,8.99,8.99H180c4.99,0,9.05,4.06,9.05,9.05v39.85
					c0,4.96,4.03,8.99,8.99,8.99c4.96,0,8.99-4.03,8.99-8.99v-39.81C207.04,158.75,194.89,146.6,179.96,146.6z"/>
			</g>
			<g>
				<path d="M259.23,175.12c-4.96,0-8.99,4.03-8.99,8.99v29.37c0,4.96,4.03,8.99,8.99,8.99c4.96,0,8.99-4.03,8.99-8.99v-29.37
					C268.22,179.15,264.19,175.12,259.23,175.12z"/>
			</g>
			<g>
				<path d="M286.13,146.6h-26.9c-4.96,0-8.99,4.03-8.99,8.99c0,4.96,4.03,8.99,8.99,8.99h26.93c4.99,0,9.05,4.06,9.05,9.05v39.85
					c0,4.96,4.03,8.99,8.99,8.99s8.99-4.03,8.99-8.99v-39.81C313.2,158.75,301.06,146.6,286.13,146.6z"/>
			</g>
		</g>
	</g>
	<g>
		<path d="M492.79,274.12c8.11,0,14.63,2.19,19.54,6.58c4.92,4.39,7.37,9.86,7.37,16.41c0,3.93-0.92,7.6-2.76,11
			c-1.84,3.4-4.32,6.13-7.44,8.17c4.67,2.05,8.15,4.94,10.45,8.67c2.29,3.73,3.44,7.77,3.44,12.11c0,6.64-2.48,12.15-7.44,16.53
			c-4.96,4.38-11.66,6.58-20.1,6.58h-43.02v-86.04H492.79z M470.67,290.71v19.18h21.51c2.95,0,5.35-0.94,7.19-2.83
			c1.84-1.89,2.77-4.14,2.77-6.76c0-2.62-0.92-4.87-2.77-6.76c-1.84-1.88-4.24-2.82-7.19-2.82H470.67z M470.67,324.76v18.81h23.97
			c2.95,0,5.35-0.9,7.19-2.7c1.84-1.8,2.77-4.01,2.77-6.64c0-2.62-0.92-4.86-2.77-6.7c-1.84-1.84-4.24-2.77-7.19-2.77H470.67z"/>
		<path d="M534.46,360.16v-86.04h18.56v86.04H534.46z"/>
		<path d="M607.72,274.12c8.11,0,14.63,2.19,19.54,6.58c4.92,4.39,7.37,9.86,7.37,16.41c0,3.93-0.92,7.6-2.76,11
			c-1.84,3.4-4.32,6.13-7.44,8.17c4.67,2.05,8.15,4.94,10.45,8.67c2.29,3.73,3.44,7.77,3.44,12.11c0,6.64-2.48,12.15-7.44,16.53
			c-4.96,4.38-11.66,6.58-20.1,6.58h-43.02v-86.04H607.72z M585.6,290.71v19.18h21.51c2.95,0,5.35-0.94,7.19-2.83
			c1.84-1.89,2.77-4.14,2.77-6.76c0-2.62-0.92-4.87-2.77-6.76c-1.84-1.88-4.24-2.82-7.19-2.82H585.6z M585.6,324.76v18.81h23.97
			c2.95,0,5.35-0.9,7.19-2.7c1.84-1.8,2.77-4.01,2.77-6.64c0-2.62-0.92-4.86-2.77-6.7c-1.84-1.84-4.24-2.77-7.19-2.77H585.6z"/>
		<path d="M648.16,360.16v-86.04h18.44v68.96h41.92v17.09H648.16z"/>
		<path d="M720.19,360.16v-86.04h18.56v86.04H720.19z"/>
		<path d="M763.33,286.16c8.6-8.6,18.97-12.91,31.1-12.91c8.69,0,16.49,2.38,23.42,7.13c6.92,4.75,12.19,11.06,15.8,18.93
			l-17.58,5.04c-2.21-4.1-5.16-7.38-8.85-9.83c-3.69-2.46-7.95-3.69-12.78-3.69c-7.29,0-13.38,2.54-18.25,7.62
			c-4.88,5.08-7.31,11.35-7.31,18.8c0,7.46,2.44,13.71,7.31,18.75c4.87,5.04,10.96,7.56,18.25,7.56c9.67,0,16.76-4.3,21.27-12.91
			l17.82,4.79c-3.52,7.79-8.75,14.01-15.67,18.68c-6.93,4.67-14.73,7.01-23.42,7.01c-12.13,0-22.49-4.28-31.1-12.85
			c-8.6-8.56-12.91-18.91-12.91-31.04C750.43,305.13,754.73,294.77,763.33,286.16z"/>
		<path d="M865.11,274.12h28.03l28.64,86.04h-19.05l-5.53-17.09h-36.51l-5.65,17.09h-19.17L865.11,274.12z M891.78,326.36
			l-12.66-39.46l-13.03,39.46H891.78z"/>
		<path d="M930.99,360.16v-86.04h18.44v68.96h41.92v17.09H930.99z"/>
		<path d="M462.68,397.23c8.6-8.6,18.97-12.91,31.1-12.91c8.69,0,16.49,2.38,23.42,7.13c6.92,4.75,12.19,11.06,15.8,18.93
			l-17.58,5.04c-2.21-4.1-5.16-7.38-8.85-9.83c-3.69-2.46-7.95-3.69-12.78-3.69c-7.29,0-13.38,2.54-18.25,7.62
			c-4.88,5.08-7.31,11.35-7.31,18.8c0,7.46,2.44,13.71,7.31,18.75c4.87,5.04,10.96,7.56,18.25,7.56c9.67,0,16.76-4.3,21.27-12.91
			l17.82,4.79c-3.52,7.79-8.75,14.01-15.67,18.68c-6.93,4.67-14.73,7.01-23.42,7.01c-12.13,0-22.49-4.28-31.1-12.85
			c-8.6-8.56-12.91-18.91-12.91-31.04C449.77,416.2,454.07,405.83,462.68,397.23z"/>
		<path d="M539.13,428.32c0-12.13,4.3-22.49,12.91-31.1c8.6-8.6,18.97-12.91,31.1-12.91c12.13,0,22.47,4.3,31.04,12.91
			c8.56,8.6,12.88,18.97,12.97,31.1c0,0.08,0,0.21,0,0.37c0,11.88-4.26,22.09-12.78,30.61c-8.69,8.61-19.09,12.91-31.22,12.91
			c-12.13,0-22.49-4.28-31.1-12.85C543.43,450.8,539.13,440.45,539.13,428.32z M564.94,447.25c4.83,5.16,10.9,7.74,18.19,7.74
			c7.29,0,13.38-2.58,18.25-7.74c4.88-5.16,7.31-11.47,7.31-18.93c0-7.45-2.44-13.79-7.31-18.99c-4.88-5.2-10.96-7.81-18.25-7.81
			c-7.21,0-13.27,2.6-18.19,7.81c-4.92,5.2-7.37,11.54-7.37,18.99C557.57,435.78,560.03,442.09,564.94,447.25z"/>
		<path d="M636.36,471.35v-86.29h32.57c12.21,0,22.6,4.18,31.16,12.54c8.56,8.36,12.89,18.56,12.97,30.61c0,0.08,0,0.21,0,0.37
			c0,11.97-4.26,22.09-12.78,30.36c-8.52,8.28-18.97,12.41-31.35,12.41H636.36z M654.92,454.14h14.01c7.79,0,14.08-2.46,18.87-7.37
			c4.79-4.92,7.19-11.1,7.19-18.56c0-7.54-2.42-13.75-7.25-18.62c-4.84-4.88-11.11-7.32-18.81-7.32h-14.01V454.14z"/>
		<path d="M785.83,385.18v17.08h-43.88v17.58h38.96v16.72h-38.96v17.58h43.88v17.09h-62.32v-86.04H785.83z"/>
	</g>
</g>
</svg>
